<?xml version="1.0" standalone="no"?>
<!DOCTYPE svg PUBLIC "-//W3C//DTD SVG 20010904//EN"
 "http://www.w3.org/TR/2001/REC-SVG-20010904/DTD/svg10.dtd">
<svg version="1.0" xmlns="http://www.w3.org/2000/svg"
 width="200.000000pt" height="200.000000pt" viewBox="0 0 200.000000 200.000000"
 preserveAspectRatio="xMidYMid meet">
<metadata>
Created by potrace 1.14, written by Peter Selinger 2001-2017
</metadata>
<g transform="translate(0.000000,200.000000) scale(0.100000,-0.100000)"
fill="#000000" stroke="none">
<path d="M1222 1788 c-11 -29 -34 -98 -51 -153 -18 -55 -36 -109 -41 -120 -5
-11 -68 -200 -140 -420 -72 -220 -135 -409 -140 -420 -20 -46 -150 -451 -150
-466 0 -27 25 -42 49 -30 26 14 556 1599 547 1637 -5 17 -13 24 -30 24 -20 0
-28 -9 -44 -52z"/>
<path d="M439 1402 c-30 -32 -93 -101 -141 -152 -47 -52 -111 -122 -142 -155
-75 -80 -77 -94 -29 -145 21 -23 49 -54 63 -69 38 -42 189 -209 240 -266 66
-73 76 -78 104 -49 13 13 14 19 3 38 -10 20 -93 115 -202 231 -74 80 -147 164
-147 170 0 6 75 93 141 164 14 16 60 66 101 111 41 46 80 88 86 94 27 28 34
54 18 70 -25 25 -38 20 -95 -42z"/>
<path d="M1466 1444 c-16 -16 -10 -41 18 -70 6 -6 45 -48 86 -94 41 -46 86
-95 100 -110 103 -112 145 -162 142 -168 -2 -4 -29 -36 -61 -72 -63 -70 -63
-70 -196 -215 -100 -109 -111 -127 -89 -150 29 -29 35 -25 199 155 257 283
249 272 241 298 -3 9 -34 46 -68 81 -34 36 -84 90 -111 120 -144 161 -221 241
-233 241 -7 0 -20 -7 -28 -16z"/>
</g>
</svg>
